<svg xmlns="http://www.w3.org/2000/svg" version="1.1" xmlns:xlink="http://www.w3.org/1999/xlink" xmlns:svgjs="http://svgjs.dev/svgjs" width="1440" height="560" preserveAspectRatio="none" viewBox="0 0 1440 560"><g mask="url(&quot;#SvgjsMask1046&quot;)" fill="none"><path d="M111.03 140C111.03 112.74 31.69 131.16 0 91.21C-23.83 61.16 -24.27 21.33 0 0C27.62 -24.27 69.22 -24.69 103.79 0C139.22 25.31 109.79 60.18 140 100C162.9 130.18 173.08 124.74 210 140C243.08 153.67 246.89 157.87 280 157.87C293.24 157.87 299.8 153.47 302.7 140C316.82 74.53 280.62 39.9 314.05 0C339.27 -30.1 367.02 0 420 0C467.81 0 470.42 -9.04 515.61 0C540.42 4.96 535.22 28 560 28C627.41 28 630.82 -3.46 700 0C770.82 3.54 777.85 7.04 840 42C902.29 77.04 894.07 91.43 948.89 140C964.07 153.45 960.78 162.62 980 166.05C1046.34 177.9 1054.04 180.25 1120 170.57C1142.77 167.23 1150.03 161.71 1157.46 140C1179.2 76.43 1145.82 44.39 1178.33 0C1197.09 -25.61 1219.16 0 1260 0C1330 0 1330 0 1400 0C1450 0 1454 -11 1500 0C1524 5.74 1533.43 10.47 1540 33.48C1553.43 80.47 1540 86.74 1540 140C1540 210 1540 210 1540 280C1540 350 1540 350 1540 420C1540 455 1547.28 456.51 1540 490C1532.06 526.51 1538.31 545.63 1509.57 560C1468.31 580.63 1454.78 560 1400 560C1330 560 1330 560 1260 560C1190 560 1190 560 1120 560C1065.56 560 1054.93 577.88 1011.11 560C984.93 549.31 996.13 502.86 980 502.86C963.5 502.86 972.88 548.97 945.85 560C902.88 577.54 892.92 560 840 560C770 560 770 560 700 560C630 560 630 560 560 560C490 560 490 560 420 560C365.4 560 357.72 574.75 310.8 560C287.72 552.75 302.26 516 280 516C227.63 516 221.35 541.2 161.54 560C151.35 563.2 150.77 560 140 560C70 560 35 595 0 560C-35 525 0 490 0 420C0 350 0 350 0 280C0 241.57 -20.86 229.44 0 203.14C34.66 159.44 111.03 168.71 111.03 140" stroke="rgba(51, 121, 194, 0.58)" stroke-width="2" data-darkreader-inline-stroke="" style="--darkreader-inline-stroke: rgba(127, 211, 255, 0.58);"></path><path d="M420 251.28C403.2 252.31 397.14 264.85 397.14 280C397.14 298.52 400.49 317.13 420 318.62C481.92 323.35 491 308.55 560 292.44C573.72 289.24 585.45 285.71 585.45 280C585.45 274.49 573.42 272.33 560 270C490.69 257.97 484.63 247.31 420 251.28" stroke="rgba(51, 121, 194, 0.58)" stroke-width="2" data-darkreader-inline-stroke="" style="--darkreader-inline-stroke: rgba(127, 211, 255, 0.58);"></path><path d="M1260 255.56C1246.04 255.56 1240.51 265.74 1240.51 280C1240.51 314.62 1236.88 326.24 1260 353.33C1296.62 396.24 1308.25 390.18 1360 420C1378.25 430.51 1380 434 1400 434C1420 434 1440 434.47 1440 420C1440 392.47 1419.49 385.28 1400 350C1380.82 315.28 1392.71 300.26 1362.67 280C1322.71 253.04 1307.12 255.56 1260 255.56" stroke="rgba(51, 121, 194, 0.58)" stroke-width="2" data-darkreader-inline-stroke="" style="--darkreader-inline-stroke: rgba(127, 211, 255, 0.58);"></path><path d="M700 373.33C677.31 379.92 674.8 399.09 674.8 420C674.8 432.93 684.42 437.32 700 441C767.02 456.85 773.42 465.94 840 459.07C875.12 455.44 903.4 441.05 903.4 420C903.4 397.52 876.84 380.45 840 372C775.14 357.12 759.91 355.92 700 373.33" stroke="rgba(51, 121, 194, 0.58)" stroke-width="2" data-darkreader-inline-stroke="" style="--darkreader-inline-stroke: rgba(127, 211, 255, 0.58);"></path><path d="M43.45 0C43.45 10.9 13.09 38.18 0 38.18C-8.64 38.18 -10.16 8.93 0 0C11.56 -10.16 43.45 -8.19 43.45 0" stroke="rgba(51, 121, 194, 0.58)" stroke-width="2" data-darkreader-inline-stroke="" style="--darkreader-inline-stroke: rgba(127, 211, 255, 0.58);"></path><path d="M397.3 140C392.66 73.95 398.15 64.77 408.65 0C409.5 -5.23 414.33 0 420 0C425.12 0 425.86 -2.56 430.24 0C495.86 38.36 489.94 66.7 560 81.85C624.82 95.87 630.17 57.36 700 58.33C770.17 59.31 776.15 59.71 840 85.75C876.29 100.55 869.61 113.49 900.28 140C939.61 173.99 933.19 191.66 980 206.74C1043.05 227.06 1057.69 189.69 1120 210.8C1165.79 226.32 1181.9 235.73 1196.2 280C1215.69 340.33 1182.46 350.69 1187.59 420C1192.82 490.69 1237.07 518.27 1216.92 560C1203.27 588.27 1168.46 560 1120 560C1085 560 1072.64 580.8 1050 560C1002.64 516.51 1016.41 494.7 980 431.43C976.13 424.7 975.56 424.79 969.43 420C905.56 370.07 909.09 363.26 840 322C791.87 293.26 786.02 303.81 735 280C716.02 271.14 719.33 264.68 700 256.67C631.83 228.43 630.24 231.37 560 207.5C490.24 183.8 487.1 189.38 420 161.54C405.75 155.63 398.33 154.72 397.3 140" stroke="rgba(51, 121, 194, 0.58)" stroke-width="2" data-darkreader-inline-stroke="" style="--darkreader-inline-stroke: rgba(127, 211, 255, 0.58);"></path><path d="M1206.76 140C1203.93 75.32 1226.13 66.06 1251.25 0C1252.75 -3.94 1255.63 0 1260 0C1330 0 1330 0 1400 0C1427.28 0 1431.54 -11.75 1454.55 0C1501.54 24.01 1513.54 28.16 1540 71.52C1556.26 98.16 1540 105.76 1540 140C1540 189.22 1564.92 238.44 1540 238.44C1497.9 238.44 1471.77 190.39 1405.96 140C1401.77 136.79 1403.5 131.25 1400 131.25C1395.69 131.25 1396.17 137.14 1390.34 140C1326.17 171.51 1318.88 200 1260 200C1227.09 200 1208.31 175.32 1206.76 140" stroke="rgba(51, 121, 194, 0.58)" stroke-width="2" data-darkreader-inline-stroke="" style="--darkreader-inline-stroke: rgba(127, 211, 255, 0.58);"></path><path d="M0 271.76C66.17 255.88 69.61 256.31 140 246.4C209.61 236.6 216.8 220.91 280 232.34C309.66 237.71 325.71 251.17 325.71 280C325.71 340.88 323.94 396.47 280 411.76C231.08 428.78 200.81 342.04 140 344.62C103.59 346.16 119.61 389.96 85.56 420C49.61 451.72 28.71 468.13 0 468.13C-14.07 468.13 0 444.07 0 420C0 350 0 350 0 280C0 275.88 -3.83 272.68 0 271.76" stroke="rgba(51, 121, 194, 0.58)" stroke-width="2" data-darkreader-inline-stroke="" style="--darkreader-inline-stroke: rgba(127, 211, 255, 0.58);"></path><path d="M448 420C500.18 389.85 509.3 370.22 560 370.22C587.7 370.22 580.24 397.35 604.8 420C650.24 461.91 644.78 480.6 700 499.33C762.38 520.49 777.43 481.08 840 499.77C879.01 511.42 903.17 542.53 903.17 560C903.17 572.64 871.59 560 840 560C770 560 770 560 700 560C630 560 630 560 560 560C490 560 490 560 420 560C400.4 560 380.8 573.78 380.8 560C380.8 519.33 395.32 502.52 420 451.11C428.92 432.52 430.18 430.3 448 420" stroke="rgba(51, 121, 194, 0.58)" stroke-width="2" data-darkreader-inline-stroke="" style="--darkreader-inline-stroke: rgba(127, 211, 255, 0.58);"></path><path d="M1350.32 560C1350.32 549.25 1377.05 521.5 1400 521.5C1418.63 521.5 1433.48 548.38 1433.48 560C1433.48 567.63 1416.74 560 1400 560C1375.16 560 1350.32 568.5 1350.32 560" stroke="rgba(51, 121, 194, 0.58)" stroke-width="2" data-darkreader-inline-stroke="" style="--darkreader-inline-stroke: rgba(127, 211, 255, 0.58);"></path><path d="M546.67 140C546.67 137.69 553.08 136.74 560 135.69C629.75 125.08 629.83 118.22 700 116.67C769.83 115.13 771.78 119.01 840 129.5C847.62 130.67 851.67 132.62 851.67 140C851.67 179.87 867.52 217.95 840 224C791.69 234.62 771.45 193.49 700 173.33C631.45 153.99 629.72 160.15 560 145C553.05 143.49 546.67 142.35 546.67 140" stroke="rgba(51, 121, 194, 0.58)" stroke-width="2" data-darkreader-inline-stroke="" style="--darkreader-inline-stroke: rgba(127, 211, 255, 0.58);"></path><path d="M1256.06 140C1256.06 134.56 1256.95 128.33 1260 128.33C1263.75 128.33 1269.66 135.27 1269.66 140C1269.66 143.32 1264.36 144.44 1260 144.44C1257.56 144.44 1256.06 142.62 1256.06 140" stroke="rgba(51, 121, 194, 0.58)" stroke-width="2" data-darkreader-inline-stroke="" style="--darkreader-inline-stroke: rgba(127, 211, 255, 0.58);"></path><path d="M1400 21.87C1389.69 21.87 1374.07 6.2 1374.07 0C1374.07 -4.74 1387.03 0 1400 0C1404.55 0 1409.09 -3.03 1409.09 0C1409.09 7.9 1407.2 21.87 1400 21.87" stroke="rgba(51, 121, 194, 0.58)" stroke-width="2" data-darkreader-inline-stroke="" style="--darkreader-inline-stroke: rgba(127, 211, 255, 0.58);"></path><path d="M1480.43 140C1480.43 122.38 1519.53 109.57 1540 109.57C1549.31 109.57 1540 124.78 1540 140C1540 161.88 1551.08 183.75 1540 183.75C1521.29 183.75 1480.43 159.47 1480.43 140" stroke="rgba(51, 121, 194, 0.58)" stroke-width="2" data-darkreader-inline-stroke="" style="--darkreader-inline-stroke: rgba(127, 211, 255, 0.58);"></path><path d="M863.33 280C863.33 256.17 920.48 254.16 980 247.44C1048.82 239.67 1054.27 238.58 1120 251.03C1140.22 254.86 1151.9 261.6 1151.9 280C1151.9 319.53 1154.03 353.38 1120 366.9C1068.08 387.53 1045.57 370.49 980 348.29C917.24 327.04 863.33 306.6 863.33 280" stroke="rgba(51, 121, 194, 0.58)" stroke-width="2" data-darkreader-inline-stroke="" style="--darkreader-inline-stroke: rgba(127, 211, 255, 0.58);"></path><path d="M690 560C690 559.41 694.91 558.33 700 557.67C769.91 548.57 773.17 539.5 840 540.47C853.41 540.66 860.49 554.34 860.49 560C860.49 564.1 850.24 560 840 560C770 560 770 560 700 560C695 560 690 560.57 690 560" stroke="rgba(51, 121, 194, 0.58)" stroke-width="2" data-darkreader-inline-stroke="" style="--darkreader-inline-stroke: rgba(127, 211, 255, 0.58);"></path><path d="M1088.89 560C1088.89 525.93 1101.88 469.68 1120 469.68C1138.98 469.68 1163.08 528.43 1163.08 560C1163.08 573.59 1141.54 560 1120 560C1104.45 560 1088.89 571.09 1088.89 560" stroke="rgba(51, 121, 194, 0.58)" stroke-width="2" data-darkreader-inline-stroke="" style="--darkreader-inline-stroke: rgba(127, 211, 255, 0.58);"></path></g><defs><mask id="SvgjsMask1046"><rect width="1440" height="560" fill="#ffffff" data-darkreader-inline-fill="" style="--darkreader-inline-fill: #1f2223;"></rect></mask></defs></svg>